<svg width="15" height="16" viewBox="0 0 15 16" fill="none" xmlns="http://www.w3.org/2000/svg">
<path fill-rule="evenodd" clip-rule="evenodd" d="M13.3333 1.6H12.5V0H10.8333V1.6H4.16667V0H2.5V1.6H1.66667C0.741667 1.6 0 2.32 0 3.2V14.4C0 15.28 0.741667 16 1.66667 16H13.3333C14.25 16 15 15.28 15 14.4V3.2C15 2.32 14.25 1.6 13.3333 1.6ZM13.3333 14.4H1.66667V5.6H13.3333V14.4ZM2.91667 8.8C2.91667 7.696 3.85 6.8 5 6.8C6.15 6.8 7.08333 7.696 7.08333 8.8C7.08333 9.904 6.15 10.8 5 10.8C3.85 10.8 2.91667 9.904 2.91667 8.8Z" fill="#162A48"/>
</svg>
